<mxfile host="app.diagrams.net" modified="2024-02-09T07:51:03.769Z" agent="Mozilla/5.0 (Windows NT 10.0; Win64; x64) AppleWebKit/537.36 (KHTML, like Gecko) Chrome/109.0.0.0 Safari/537.36" etag="wnk_qW8dEon6ys4KC9X8" version="23.1.2" type="device">
  <diagram name="Page-1" id="6133507b-19e7-1e82-6fc7-422aa6c4b21f">
    <mxGraphModel dx="871" dy="348" grid="1" gridSize="10" guides="1" tooltips="1" connect="1" arrows="1" fold="1" page="1" pageScale="1" pageWidth="1169" pageHeight="827" background="none" math="0" shadow="0">
      <root>
        <mxCell id="0" />
        <mxCell id="1" parent="0" />
        <mxCell id="FlubJuxZXB5tlYy22sZI-188" style="edgeStyle=orthogonalEdgeStyle;rounded=0;orthogonalLoop=1;jettySize=auto;html=1;exitX=0.5;exitY=0;exitDx=0;exitDy=0;entryX=0.01;entryY=1.154;entryDx=0;entryDy=0;entryPerimeter=0;" parent="1" source="FlubJuxZXB5tlYy22sZI-2" target="FlubJuxZXB5tlYy22sZI-180" edge="1">
          <mxGeometry relative="1" as="geometry">
            <Array as="points">
              <mxPoint x="120" y="550" />
              <mxPoint x="240" y="550" />
              <mxPoint x="240" y="344" />
            </Array>
          </mxGeometry>
        </mxCell>
        <mxCell id="FlubJuxZXB5tlYy22sZI-2" value="Cat" style="swimlane;html=1;fontStyle=1;align=center;verticalAlign=top;childLayout=stackLayout;horizontal=1;startSize=26;horizontalStack=0;resizeParent=1;resizeLast=0;collapsible=1;marginBottom=0;swimlaneFillColor=#ffffff;rounded=0;shadow=0;comic=0;labelBackgroundColor=none;strokeWidth=1;fillColor=none;fontFamily=Verdana;fontSize=12" parent="1" vertex="1">
          <mxGeometry x="40" y="590" width="190" height="260" as="geometry" />
        </mxCell>
        <mxCell id="FlubJuxZXB5tlYy22sZI-3" value="- name: String" style="text;html=1;strokeColor=none;fillColor=none;align=left;verticalAlign=top;spacingLeft=4;spacingRight=4;whiteSpace=wrap;overflow=hidden;rotatable=0;points=[[0,0.5],[1,0.5]];portConstraint=eastwest;" parent="FlubJuxZXB5tlYy22sZI-2" vertex="1">
          <mxGeometry y="26" width="190" height="26" as="geometry" />
        </mxCell>
        <mxCell id="FlubJuxZXB5tlYy22sZI-29" value="- skills: String" style="text;html=1;strokeColor=none;fillColor=none;align=left;verticalAlign=top;spacingLeft=4;spacingRight=4;whiteSpace=wrap;overflow=hidden;rotatable=0;points=[[0,0.5],[1,0.5]];portConstraint=eastwest;" parent="FlubJuxZXB5tlYy22sZI-2" vertex="1">
          <mxGeometry y="52" width="190" height="26" as="geometry" />
        </mxCell>
        <mxCell id="FlubJuxZXB5tlYy22sZI-30" value="- displayCommands()" style="text;html=1;strokeColor=none;fillColor=none;align=left;verticalAlign=top;spacingLeft=4;spacingRight=4;whiteSpace=wrap;overflow=hidden;rotatable=0;points=[[0,0.5],[1,0.5]];portConstraint=eastwest;" parent="FlubJuxZXB5tlYy22sZI-2" vertex="1">
          <mxGeometry y="78" width="190" height="26" as="geometry" />
        </mxCell>
        <mxCell id="FlubJuxZXB5tlYy22sZI-67" value="-teachNewCommand(command)" style="text;html=1;strokeColor=none;fillColor=none;align=left;verticalAlign=top;spacingLeft=4;spacingRight=4;whiteSpace=wrap;overflow=hidden;rotatable=0;points=[[0,0.5],[1,0.5]];portConstraint=eastwest;" parent="FlubJuxZXB5tlYy22sZI-2" vertex="1">
          <mxGeometry y="104" width="190" height="28" as="geometry" />
        </mxCell>
        <mxCell id="FlubJuxZXB5tlYy22sZI-5" value="" style="line;html=1;strokeWidth=1;fillColor=none;align=left;verticalAlign=middle;spacingTop=-1;spacingLeft=3;spacingRight=3;rotatable=0;labelPosition=right;points=[];portConstraint=eastwest;" parent="FlubJuxZXB5tlYy22sZI-2" vertex="1">
          <mxGeometry y="132" width="190" height="8" as="geometry" />
        </mxCell>
        <mxCell id="FlubJuxZXB5tlYy22sZI-9" value="+ getName(): String;" style="text;html=1;strokeColor=none;fillColor=none;align=left;verticalAlign=top;spacingLeft=4;spacingRight=4;whiteSpace=wrap;overflow=hidden;rotatable=0;points=[[0,0.5],[1,0.5]];portConstraint=eastwest;" parent="FlubJuxZXB5tlYy22sZI-2" vertex="1">
          <mxGeometry y="140" width="190" height="26" as="geometry" />
        </mxCell>
        <mxCell id="FlubJuxZXB5tlYy22sZI-10" value="+ getSkills(): string" style="text;html=1;strokeColor=none;fillColor=none;align=left;verticalAlign=top;spacingLeft=4;spacingRight=4;whiteSpace=wrap;overflow=hidden;rotatable=0;points=[[0,0.5],[1,0.5]];portConstraint=eastwest;" parent="FlubJuxZXB5tlYy22sZI-2" vertex="1">
          <mxGeometry y="166" width="190" height="26" as="geometry" />
        </mxCell>
        <mxCell id="FlubJuxZXB5tlYy22sZI-71" value="+ updatedSkills(): string" style="text;html=1;strokeColor=none;fillColor=none;align=left;verticalAlign=top;spacingLeft=4;spacingRight=4;whiteSpace=wrap;overflow=hidden;rotatable=0;points=[[0,0.5],[1,0.5]];portConstraint=eastwest;" parent="FlubJuxZXB5tlYy22sZI-2" vertex="1">
          <mxGeometry y="192" width="190" height="26" as="geometry" />
        </mxCell>
        <mxCell id="FlubJuxZXB5tlYy22sZI-72" value="+ setSkills(updatedSkills)" style="text;html=1;strokeColor=none;fillColor=none;align=left;verticalAlign=top;spacingLeft=4;spacingRight=4;whiteSpace=wrap;overflow=hidden;rotatable=0;points=[[0,0.5],[1,0.5]];portConstraint=eastwest;" parent="FlubJuxZXB5tlYy22sZI-2" vertex="1">
          <mxGeometry y="218" width="190" height="26" as="geometry" />
        </mxCell>
        <mxCell id="FlubJuxZXB5tlYy22sZI-20" value="Animal" style="swimlane;html=1;fontStyle=1;align=center;verticalAlign=top;childLayout=stackLayout;horizontal=1;startSize=30;horizontalStack=0;resizeParent=1;resizeLast=0;collapsible=1;marginBottom=0;swimlaneFillColor=#ffffff;rounded=0;shadow=0;comic=0;labelBackgroundColor=none;strokeWidth=1;fillColor=none;fontFamily=Verdana;fontSize=12" parent="1" vertex="1">
          <mxGeometry x="320" y="120" width="210" height="220" as="geometry" />
        </mxCell>
        <mxCell id="FlubJuxZXB5tlYy22sZI-68" value="- name: String;" style="text;html=1;strokeColor=none;fillColor=none;align=left;verticalAlign=top;spacingLeft=4;spacingRight=4;whiteSpace=wrap;overflow=hidden;rotatable=0;points=[[0,0.5],[1,0.5]];portConstraint=eastwest;" parent="FlubJuxZXB5tlYy22sZI-20" vertex="1">
          <mxGeometry y="30" width="210" height="26" as="geometry" />
        </mxCell>
        <mxCell id="FlubJuxZXB5tlYy22sZI-176" value="- skills: String;" style="text;html=1;strokeColor=none;fillColor=none;align=left;verticalAlign=top;spacingLeft=4;spacingRight=4;whiteSpace=wrap;overflow=hidden;rotatable=0;points=[[0,0.5],[1,0.5]];portConstraint=eastwest;" parent="FlubJuxZXB5tlYy22sZI-20" vertex="1">
          <mxGeometry y="56" width="210" height="26" as="geometry" />
        </mxCell>
        <mxCell id="FlubJuxZXB5tlYy22sZI-22" value="" style="line;html=1;strokeWidth=1;fillColor=none;align=left;verticalAlign=middle;spacingTop=-1;spacingLeft=3;spacingRight=3;rotatable=0;labelPosition=right;points=[];portConstraint=eastwest;" parent="FlubJuxZXB5tlYy22sZI-20" vertex="1">
          <mxGeometry y="82" width="210" height="8" as="geometry" />
        </mxCell>
        <mxCell id="FlubJuxZXB5tlYy22sZI-26" value="+ getName(): String;" style="text;html=1;strokeColor=none;fillColor=none;align=left;verticalAlign=top;spacingLeft=4;spacingRight=4;whiteSpace=wrap;overflow=hidden;rotatable=0;points=[[0,0.5],[1,0.5]];portConstraint=eastwest;" parent="FlubJuxZXB5tlYy22sZI-20" vertex="1">
          <mxGeometry y="90" width="210" height="26" as="geometry" />
        </mxCell>
        <mxCell id="FlubJuxZXB5tlYy22sZI-27" value="+ getSkills(): String;" style="text;html=1;strokeColor=none;fillColor=none;align=left;verticalAlign=top;spacingLeft=4;spacingRight=4;whiteSpace=wrap;overflow=hidden;rotatable=0;points=[[0,0.5],[1,0.5]];portConstraint=eastwest;" parent="FlubJuxZXB5tlYy22sZI-20" vertex="1">
          <mxGeometry y="116" width="210" height="26" as="geometry" />
        </mxCell>
        <mxCell id="FlubJuxZXB5tlYy22sZI-178" value="+ setSkills(updatedSkills)" style="text;html=1;strokeColor=none;fillColor=none;align=left;verticalAlign=top;spacingLeft=4;spacingRight=4;whiteSpace=wrap;overflow=hidden;rotatable=0;points=[[0,0.5],[1,0.5]];portConstraint=eastwest;" parent="FlubJuxZXB5tlYy22sZI-20" vertex="1">
          <mxGeometry y="142" width="210" height="26" as="geometry" />
        </mxCell>
        <mxCell id="FlubJuxZXB5tlYy22sZI-179" value="+ displayCommands()" style="text;html=1;strokeColor=none;fillColor=none;align=left;verticalAlign=top;spacingLeft=4;spacingRight=4;whiteSpace=wrap;overflow=hidden;rotatable=0;points=[[0,0.5],[1,0.5]];portConstraint=eastwest;" parent="FlubJuxZXB5tlYy22sZI-20" vertex="1">
          <mxGeometry y="168" width="210" height="26" as="geometry" />
        </mxCell>
        <mxCell id="FlubJuxZXB5tlYy22sZI-180" value="+ teachNewCommand(command)" style="text;html=1;strokeColor=none;fillColor=none;align=left;verticalAlign=top;spacingLeft=4;spacingRight=4;whiteSpace=wrap;overflow=hidden;rotatable=0;points=[[0,0.5],[1,0.5]];portConstraint=eastwest;" parent="FlubJuxZXB5tlYy22sZI-20" vertex="1">
          <mxGeometry y="194" width="210" height="26" as="geometry" />
        </mxCell>
        <mxCell id="FlubJuxZXB5tlYy22sZI-31" value="Menu" style="swimlane;html=1;fontStyle=1;align=center;verticalAlign=top;childLayout=stackLayout;horizontal=1;startSize=26;horizontalStack=0;resizeParent=1;resizeLast=0;collapsible=1;marginBottom=0;swimlaneFillColor=#ffffff;rounded=0;shadow=0;comic=0;labelBackgroundColor=none;strokeWidth=1;fillColor=none;fontFamily=Verdana;fontSize=12" parent="1" vertex="1">
          <mxGeometry x="30" y="10" width="200" height="150" as="geometry" />
        </mxCell>
        <mxCell id="FlubJuxZXB5tlYy22sZI-32" value="- displayMenu: void" style="text;html=1;strokeColor=none;fillColor=none;align=left;verticalAlign=top;spacingLeft=4;spacingRight=4;whiteSpace=wrap;overflow=hidden;rotatable=0;points=[[0,0.5],[1,0.5]];portConstraint=eastwest;" parent="FlubJuxZXB5tlYy22sZI-31" vertex="1">
          <mxGeometry y="26" width="200" height="26" as="geometry" />
        </mxCell>
        <mxCell id="FlubJuxZXB5tlYy22sZI-35" value="" style="line;html=1;strokeWidth=1;fillColor=none;align=left;verticalAlign=middle;spacingTop=-1;spacingLeft=3;spacingRight=3;rotatable=0;labelPosition=right;points=[];portConstraint=eastwest;" parent="FlubJuxZXB5tlYy22sZI-31" vertex="1">
          <mxGeometry y="52" width="200" height="8" as="geometry" />
        </mxCell>
        <mxCell id="FlubJuxZXB5tlYy22sZI-38" value="+ addNewAnimal(): Void;" style="text;html=1;strokeColor=none;fillColor=none;align=left;verticalAlign=top;spacingLeft=4;spacingRight=4;whiteSpace=wrap;overflow=hidden;rotatable=0;points=[[0,0.5],[1,0.5]];portConstraint=eastwest;" parent="FlubJuxZXB5tlYy22sZI-31" vertex="1">
          <mxGeometry y="60" width="200" height="26" as="geometry" />
        </mxCell>
        <mxCell id="FlubJuxZXB5tlYy22sZI-39" value="+ displayAnimalCommands(): void" style="text;html=1;strokeColor=none;fillColor=none;align=left;verticalAlign=top;spacingLeft=4;spacingRight=4;whiteSpace=wrap;overflow=hidden;rotatable=0;points=[[0,0.5],[1,0.5]];portConstraint=eastwest;" parent="FlubJuxZXB5tlYy22sZI-31" vertex="1">
          <mxGeometry y="86" width="200" height="26" as="geometry" />
        </mxCell>
        <mxCell id="FlubJuxZXB5tlYy22sZI-54" value="+ teachNewCommand(): void" style="text;html=1;strokeColor=none;fillColor=none;align=left;verticalAlign=top;spacingLeft=4;spacingRight=4;whiteSpace=wrap;overflow=hidden;rotatable=0;points=[[0,0.5],[1,0.5]];portConstraint=eastwest;" parent="FlubJuxZXB5tlYy22sZI-31" vertex="1">
          <mxGeometry y="112" width="200" height="26" as="geometry" />
        </mxCell>
        <mxCell id="FlubJuxZXB5tlYy22sZI-189" style="edgeStyle=orthogonalEdgeStyle;rounded=0;orthogonalLoop=1;jettySize=auto;html=1;exitX=0.389;exitY=-0.011;exitDx=0;exitDy=0;exitPerimeter=0;" parent="1" source="3Od7MkRay4kH6YmzunXQ-2" edge="1">
          <mxGeometry relative="1" as="geometry">
            <mxPoint x="240" y="580" as="sourcePoint" />
            <mxPoint x="360" y="340" as="targetPoint" />
          </mxGeometry>
        </mxCell>
        <mxCell id="FlubJuxZXB5tlYy22sZI-190" style="edgeStyle=orthogonalEdgeStyle;rounded=0;orthogonalLoop=1;jettySize=auto;html=1;exitX=0.5;exitY=0;exitDx=0;exitDy=0;" parent="1" edge="1">
          <mxGeometry relative="1" as="geometry">
            <mxPoint x="440" y="589.5" as="sourcePoint" />
            <mxPoint x="470" y="349.5" as="targetPoint" />
          </mxGeometry>
        </mxCell>
        <mxCell id="FlubJuxZXB5tlYy22sZI-117" value="Database" style="swimlane;html=1;fontStyle=1;align=center;verticalAlign=top;childLayout=stackLayout;horizontal=1;startSize=26;horizontalStack=0;resizeParent=1;resizeLast=0;collapsible=1;marginBottom=0;swimlaneFillColor=#ffffff;rounded=0;shadow=0;comic=0;labelBackgroundColor=none;strokeWidth=1;fillColor=none;fontFamily=Verdana;fontSize=12" parent="1" vertex="1">
          <mxGeometry x="890" y="10" width="210" height="232" as="geometry" />
        </mxCell>
        <mxCell id="FlubJuxZXB5tlYy22sZI-118" value="- animals: List&amp;lt;Animal&amp;gt;" style="text;html=1;strokeColor=none;fillColor=none;align=left;verticalAlign=top;spacingLeft=4;spacingRight=4;whiteSpace=wrap;overflow=hidden;rotatable=0;points=[[0,0.5],[1,0.5]];portConstraint=eastwest;" parent="FlubJuxZXB5tlYy22sZI-117" vertex="1">
          <mxGeometry y="26" width="210" height="26" as="geometry" />
        </mxCell>
        <mxCell id="FlubJuxZXB5tlYy22sZI-123" value="" style="line;html=1;strokeWidth=1;fillColor=none;align=left;verticalAlign=middle;spacingTop=-1;spacingLeft=3;spacingRight=3;rotatable=0;labelPosition=right;points=[];portConstraint=eastwest;" parent="FlubJuxZXB5tlYy22sZI-117" vertex="1">
          <mxGeometry y="52" width="210" height="8" as="geometry" />
        </mxCell>
        <mxCell id="FlubJuxZXB5tlYy22sZI-124" value="+ loadDatabase(): void ;" style="text;html=1;strokeColor=none;fillColor=none;align=left;verticalAlign=top;spacingLeft=4;spacingRight=4;whiteSpace=wrap;overflow=hidden;rotatable=0;points=[[0,0.5],[1,0.5]];portConstraint=eastwest;" parent="FlubJuxZXB5tlYy22sZI-117" vertex="1">
          <mxGeometry y="60" width="210" height="26" as="geometry" />
        </mxCell>
        <mxCell id="FlubJuxZXB5tlYy22sZI-125" value="+ addAnimal():&amp;nbsp;" style="text;html=1;strokeColor=none;fillColor=none;align=left;verticalAlign=top;spacingLeft=4;spacingRight=4;whiteSpace=wrap;overflow=hidden;rotatable=0;points=[[0,0.5],[1,0.5]];portConstraint=eastwest;" parent="FlubJuxZXB5tlYy22sZI-117" vertex="1">
          <mxGeometry y="86" width="210" height="26" as="geometry" />
        </mxCell>
        <mxCell id="FlubJuxZXB5tlYy22sZI-126" value="+ displayAnimalComand(String): void" style="text;html=1;strokeColor=none;fillColor=none;align=left;verticalAlign=top;spacingLeft=4;spacingRight=4;whiteSpace=wrap;overflow=hidden;rotatable=0;points=[[0,0.5],[1,0.5]];portConstraint=eastwest;" parent="FlubJuxZXB5tlYy22sZI-117" vertex="1">
          <mxGeometry y="112" width="210" height="22" as="geometry" />
        </mxCell>
        <mxCell id="FlubJuxZXB5tlYy22sZI-127" value="+ teachNewCommand(String): void" style="text;html=1;strokeColor=none;fillColor=none;align=left;verticalAlign=top;spacingLeft=4;spacingRight=4;whiteSpace=wrap;overflow=hidden;rotatable=0;points=[[0,0.5],[1,0.5]];portConstraint=eastwest;" parent="FlubJuxZXB5tlYy22sZI-117" vertex="1">
          <mxGeometry y="134" width="210" height="26" as="geometry" />
        </mxCell>
        <mxCell id="FlubJuxZXB5tlYy22sZI-128" value="+ displayAllAnimals(): void" style="text;html=1;strokeColor=none;fillColor=none;align=left;verticalAlign=top;spacingLeft=4;spacingRight=4;whiteSpace=wrap;overflow=hidden;rotatable=0;points=[[0,0.5],[1,0.5]];portConstraint=eastwest;" parent="FlubJuxZXB5tlYy22sZI-117" vertex="1">
          <mxGeometry y="160" width="210" height="26" as="geometry" />
        </mxCell>
        <mxCell id="FlubJuxZXB5tlYy22sZI-129" value="+ saveDataBase(): void" style="text;html=1;strokeColor=none;fillColor=none;align=left;verticalAlign=top;spacingLeft=4;spacingRight=4;whiteSpace=wrap;overflow=hidden;rotatable=0;points=[[0,0.5],[1,0.5]];portConstraint=eastwest;" parent="FlubJuxZXB5tlYy22sZI-117" vertex="1">
          <mxGeometry y="186" width="210" height="26" as="geometry" />
        </mxCell>
        <mxCell id="FlubJuxZXB5tlYy22sZI-182" style="edgeStyle=none;rounded=0;orthogonalLoop=1;jettySize=auto;html=1;exitX=0.5;exitY=0;exitDx=0;exitDy=0;" parent="1" edge="1">
          <mxGeometry relative="1" as="geometry">
            <mxPoint x="700" y="590" as="sourcePoint" />
            <mxPoint x="520" y="350" as="targetPoint" />
            <Array as="points">
              <mxPoint x="700" y="560" />
              <mxPoint x="520" y="560" />
            </Array>
          </mxGeometry>
        </mxCell>
        <mxCell id="FlubJuxZXB5tlYy22sZI-183" style="edgeStyle=orthogonalEdgeStyle;rounded=0;orthogonalLoop=1;jettySize=auto;html=1;exitX=0.5;exitY=0;exitDx=0;exitDy=0;entryX=1.01;entryY=1.154;entryDx=0;entryDy=0;entryPerimeter=0;" parent="1" target="FlubJuxZXB5tlYy22sZI-180" edge="1">
          <mxGeometry relative="1" as="geometry">
            <Array as="points">
              <mxPoint x="890" y="560" />
              <mxPoint x="728" y="560" />
              <mxPoint x="728" y="344" />
            </Array>
            <mxPoint x="890" y="590" as="sourcePoint" />
          </mxGeometry>
        </mxCell>
        <mxCell id="FlubJuxZXB5tlYy22sZI-187" style="edgeStyle=orthogonalEdgeStyle;rounded=0;orthogonalLoop=1;jettySize=auto;html=1;entryX=0;entryY=0.5;entryDx=0;entryDy=0;" parent="1" target="FlubJuxZXB5tlYy22sZI-176" edge="1">
          <mxGeometry relative="1" as="geometry">
            <mxPoint x="230" y="75" as="sourcePoint" />
            <Array as="points">
              <mxPoint x="230" y="75" />
              <mxPoint x="230" y="189" />
            </Array>
          </mxGeometry>
        </mxCell>
        <mxCell id="3Od7MkRay4kH6YmzunXQ-2" value="Dog" style="swimlane;html=1;fontStyle=1;align=center;verticalAlign=top;childLayout=stackLayout;horizontal=1;startSize=26;horizontalStack=0;resizeParent=1;resizeLast=0;collapsible=1;marginBottom=0;swimlaneFillColor=#ffffff;rounded=0;shadow=0;comic=0;labelBackgroundColor=none;strokeWidth=1;fillColor=none;fontFamily=Verdana;fontSize=12" parent="1" vertex="1">
          <mxGeometry x="230" y="590" width="190" height="260" as="geometry" />
        </mxCell>
        <mxCell id="3Od7MkRay4kH6YmzunXQ-3" value="- name: String" style="text;html=1;strokeColor=none;fillColor=none;align=left;verticalAlign=top;spacingLeft=4;spacingRight=4;whiteSpace=wrap;overflow=hidden;rotatable=0;points=[[0,0.5],[1,0.5]];portConstraint=eastwest;" parent="3Od7MkRay4kH6YmzunXQ-2" vertex="1">
          <mxGeometry y="26" width="190" height="26" as="geometry" />
        </mxCell>
        <mxCell id="3Od7MkRay4kH6YmzunXQ-4" value="- skills: String" style="text;html=1;strokeColor=none;fillColor=none;align=left;verticalAlign=top;spacingLeft=4;spacingRight=4;whiteSpace=wrap;overflow=hidden;rotatable=0;points=[[0,0.5],[1,0.5]];portConstraint=eastwest;" parent="3Od7MkRay4kH6YmzunXQ-2" vertex="1">
          <mxGeometry y="52" width="190" height="26" as="geometry" />
        </mxCell>
        <mxCell id="3Od7MkRay4kH6YmzunXQ-5" value="- displayCommands()" style="text;html=1;strokeColor=none;fillColor=none;align=left;verticalAlign=top;spacingLeft=4;spacingRight=4;whiteSpace=wrap;overflow=hidden;rotatable=0;points=[[0,0.5],[1,0.5]];portConstraint=eastwest;" parent="3Od7MkRay4kH6YmzunXQ-2" vertex="1">
          <mxGeometry y="78" width="190" height="26" as="geometry" />
        </mxCell>
        <mxCell id="3Od7MkRay4kH6YmzunXQ-6" value="-teachNewCommand(command)" style="text;html=1;strokeColor=none;fillColor=none;align=left;verticalAlign=top;spacingLeft=4;spacingRight=4;whiteSpace=wrap;overflow=hidden;rotatable=0;points=[[0,0.5],[1,0.5]];portConstraint=eastwest;" parent="3Od7MkRay4kH6YmzunXQ-2" vertex="1">
          <mxGeometry y="104" width="190" height="28" as="geometry" />
        </mxCell>
        <mxCell id="3Od7MkRay4kH6YmzunXQ-7" value="" style="line;html=1;strokeWidth=1;fillColor=none;align=left;verticalAlign=middle;spacingTop=-1;spacingLeft=3;spacingRight=3;rotatable=0;labelPosition=right;points=[];portConstraint=eastwest;" parent="3Od7MkRay4kH6YmzunXQ-2" vertex="1">
          <mxGeometry y="132" width="190" height="8" as="geometry" />
        </mxCell>
        <mxCell id="3Od7MkRay4kH6YmzunXQ-8" value="+ getName(): String;" style="text;html=1;strokeColor=none;fillColor=none;align=left;verticalAlign=top;spacingLeft=4;spacingRight=4;whiteSpace=wrap;overflow=hidden;rotatable=0;points=[[0,0.5],[1,0.5]];portConstraint=eastwest;" parent="3Od7MkRay4kH6YmzunXQ-2" vertex="1">
          <mxGeometry y="140" width="190" height="26" as="geometry" />
        </mxCell>
        <mxCell id="3Od7MkRay4kH6YmzunXQ-9" value="+ getSkills(): string" style="text;html=1;strokeColor=none;fillColor=none;align=left;verticalAlign=top;spacingLeft=4;spacingRight=4;whiteSpace=wrap;overflow=hidden;rotatable=0;points=[[0,0.5],[1,0.5]];portConstraint=eastwest;" parent="3Od7MkRay4kH6YmzunXQ-2" vertex="1">
          <mxGeometry y="166" width="190" height="26" as="geometry" />
        </mxCell>
        <mxCell id="3Od7MkRay4kH6YmzunXQ-10" value="+ updatedSkills(): string" style="text;html=1;strokeColor=none;fillColor=none;align=left;verticalAlign=top;spacingLeft=4;spacingRight=4;whiteSpace=wrap;overflow=hidden;rotatable=0;points=[[0,0.5],[1,0.5]];portConstraint=eastwest;" parent="3Od7MkRay4kH6YmzunXQ-2" vertex="1">
          <mxGeometry y="192" width="190" height="26" as="geometry" />
        </mxCell>
        <mxCell id="3Od7MkRay4kH6YmzunXQ-11" value="+ setSkills(updatedSkills)" style="text;html=1;strokeColor=none;fillColor=none;align=left;verticalAlign=top;spacingLeft=4;spacingRight=4;whiteSpace=wrap;overflow=hidden;rotatable=0;points=[[0,0.5],[1,0.5]];portConstraint=eastwest;" parent="3Od7MkRay4kH6YmzunXQ-2" vertex="1">
          <mxGeometry y="218" width="190" height="26" as="geometry" />
        </mxCell>
        <mxCell id="3Od7MkRay4kH6YmzunXQ-12" value="Hamster" style="swimlane;html=1;fontStyle=1;align=center;verticalAlign=top;childLayout=stackLayout;horizontal=1;startSize=26;horizontalStack=0;resizeParent=1;resizeLast=0;collapsible=1;marginBottom=0;swimlaneFillColor=#ffffff;rounded=0;shadow=0;comic=0;labelBackgroundColor=none;strokeWidth=1;fillColor=none;fontFamily=Verdana;fontSize=12" parent="1" vertex="1">
          <mxGeometry x="420" y="590" width="190" height="260" as="geometry" />
        </mxCell>
        <mxCell id="3Od7MkRay4kH6YmzunXQ-13" value="- name: String" style="text;html=1;strokeColor=none;fillColor=none;align=left;verticalAlign=top;spacingLeft=4;spacingRight=4;whiteSpace=wrap;overflow=hidden;rotatable=0;points=[[0,0.5],[1,0.5]];portConstraint=eastwest;" parent="3Od7MkRay4kH6YmzunXQ-12" vertex="1">
          <mxGeometry y="26" width="190" height="26" as="geometry" />
        </mxCell>
        <mxCell id="3Od7MkRay4kH6YmzunXQ-14" value="- skills: String" style="text;html=1;strokeColor=none;fillColor=none;align=left;verticalAlign=top;spacingLeft=4;spacingRight=4;whiteSpace=wrap;overflow=hidden;rotatable=0;points=[[0,0.5],[1,0.5]];portConstraint=eastwest;" parent="3Od7MkRay4kH6YmzunXQ-12" vertex="1">
          <mxGeometry y="52" width="190" height="26" as="geometry" />
        </mxCell>
        <mxCell id="3Od7MkRay4kH6YmzunXQ-15" value="- displayCommands()" style="text;html=1;strokeColor=none;fillColor=none;align=left;verticalAlign=top;spacingLeft=4;spacingRight=4;whiteSpace=wrap;overflow=hidden;rotatable=0;points=[[0,0.5],[1,0.5]];portConstraint=eastwest;" parent="3Od7MkRay4kH6YmzunXQ-12" vertex="1">
          <mxGeometry y="78" width="190" height="26" as="geometry" />
        </mxCell>
        <mxCell id="3Od7MkRay4kH6YmzunXQ-16" value="-teachNewCommand(command)" style="text;html=1;strokeColor=none;fillColor=none;align=left;verticalAlign=top;spacingLeft=4;spacingRight=4;whiteSpace=wrap;overflow=hidden;rotatable=0;points=[[0,0.5],[1,0.5]];portConstraint=eastwest;" parent="3Od7MkRay4kH6YmzunXQ-12" vertex="1">
          <mxGeometry y="104" width="190" height="28" as="geometry" />
        </mxCell>
        <mxCell id="3Od7MkRay4kH6YmzunXQ-17" value="" style="line;html=1;strokeWidth=1;fillColor=none;align=left;verticalAlign=middle;spacingTop=-1;spacingLeft=3;spacingRight=3;rotatable=0;labelPosition=right;points=[];portConstraint=eastwest;" parent="3Od7MkRay4kH6YmzunXQ-12" vertex="1">
          <mxGeometry y="132" width="190" height="8" as="geometry" />
        </mxCell>
        <mxCell id="3Od7MkRay4kH6YmzunXQ-18" value="+ getName(): String;" style="text;html=1;strokeColor=none;fillColor=none;align=left;verticalAlign=top;spacingLeft=4;spacingRight=4;whiteSpace=wrap;overflow=hidden;rotatable=0;points=[[0,0.5],[1,0.5]];portConstraint=eastwest;" parent="3Od7MkRay4kH6YmzunXQ-12" vertex="1">
          <mxGeometry y="140" width="190" height="26" as="geometry" />
        </mxCell>
        <mxCell id="3Od7MkRay4kH6YmzunXQ-19" value="+ getSkills(): string" style="text;html=1;strokeColor=none;fillColor=none;align=left;verticalAlign=top;spacingLeft=4;spacingRight=4;whiteSpace=wrap;overflow=hidden;rotatable=0;points=[[0,0.5],[1,0.5]];portConstraint=eastwest;" parent="3Od7MkRay4kH6YmzunXQ-12" vertex="1">
          <mxGeometry y="166" width="190" height="26" as="geometry" />
        </mxCell>
        <mxCell id="3Od7MkRay4kH6YmzunXQ-20" value="+ updatedSkills(): string" style="text;html=1;strokeColor=none;fillColor=none;align=left;verticalAlign=top;spacingLeft=4;spacingRight=4;whiteSpace=wrap;overflow=hidden;rotatable=0;points=[[0,0.5],[1,0.5]];portConstraint=eastwest;" parent="3Od7MkRay4kH6YmzunXQ-12" vertex="1">
          <mxGeometry y="192" width="190" height="26" as="geometry" />
        </mxCell>
        <mxCell id="3Od7MkRay4kH6YmzunXQ-21" value="+ setSkills(updatedSkills)" style="text;html=1;strokeColor=none;fillColor=none;align=left;verticalAlign=top;spacingLeft=4;spacingRight=4;whiteSpace=wrap;overflow=hidden;rotatable=0;points=[[0,0.5],[1,0.5]];portConstraint=eastwest;" parent="3Od7MkRay4kH6YmzunXQ-12" vertex="1">
          <mxGeometry y="218" width="190" height="26" as="geometry" />
        </mxCell>
        <mxCell id="3Od7MkRay4kH6YmzunXQ-22" value="Horse" style="swimlane;html=1;fontStyle=1;align=center;verticalAlign=top;childLayout=stackLayout;horizontal=1;startSize=26;horizontalStack=0;resizeParent=1;resizeLast=0;collapsible=1;marginBottom=0;swimlaneFillColor=#ffffff;rounded=0;shadow=0;comic=0;labelBackgroundColor=none;strokeWidth=1;fillColor=none;fontFamily=Verdana;fontSize=12" parent="1" vertex="1">
          <mxGeometry x="620" y="590" width="190" height="260" as="geometry" />
        </mxCell>
        <mxCell id="3Od7MkRay4kH6YmzunXQ-23" value="- name: String" style="text;html=1;strokeColor=none;fillColor=none;align=left;verticalAlign=top;spacingLeft=4;spacingRight=4;whiteSpace=wrap;overflow=hidden;rotatable=0;points=[[0,0.5],[1,0.5]];portConstraint=eastwest;" parent="3Od7MkRay4kH6YmzunXQ-22" vertex="1">
          <mxGeometry y="26" width="190" height="26" as="geometry" />
        </mxCell>
        <mxCell id="3Od7MkRay4kH6YmzunXQ-24" value="- skills: String" style="text;html=1;strokeColor=none;fillColor=none;align=left;verticalAlign=top;spacingLeft=4;spacingRight=4;whiteSpace=wrap;overflow=hidden;rotatable=0;points=[[0,0.5],[1,0.5]];portConstraint=eastwest;" parent="3Od7MkRay4kH6YmzunXQ-22" vertex="1">
          <mxGeometry y="52" width="190" height="26" as="geometry" />
        </mxCell>
        <mxCell id="3Od7MkRay4kH6YmzunXQ-25" value="- displayCommands()" style="text;html=1;strokeColor=none;fillColor=none;align=left;verticalAlign=top;spacingLeft=4;spacingRight=4;whiteSpace=wrap;overflow=hidden;rotatable=0;points=[[0,0.5],[1,0.5]];portConstraint=eastwest;" parent="3Od7MkRay4kH6YmzunXQ-22" vertex="1">
          <mxGeometry y="78" width="190" height="26" as="geometry" />
        </mxCell>
        <mxCell id="3Od7MkRay4kH6YmzunXQ-26" value="-teachNewCommand(command)" style="text;html=1;strokeColor=none;fillColor=none;align=left;verticalAlign=top;spacingLeft=4;spacingRight=4;whiteSpace=wrap;overflow=hidden;rotatable=0;points=[[0,0.5],[1,0.5]];portConstraint=eastwest;" parent="3Od7MkRay4kH6YmzunXQ-22" vertex="1">
          <mxGeometry y="104" width="190" height="28" as="geometry" />
        </mxCell>
        <mxCell id="3Od7MkRay4kH6YmzunXQ-27" value="" style="line;html=1;strokeWidth=1;fillColor=none;align=left;verticalAlign=middle;spacingTop=-1;spacingLeft=3;spacingRight=3;rotatable=0;labelPosition=right;points=[];portConstraint=eastwest;" parent="3Od7MkRay4kH6YmzunXQ-22" vertex="1">
          <mxGeometry y="132" width="190" height="8" as="geometry" />
        </mxCell>
        <mxCell id="3Od7MkRay4kH6YmzunXQ-28" value="+ getName(): String;" style="text;html=1;strokeColor=none;fillColor=none;align=left;verticalAlign=top;spacingLeft=4;spacingRight=4;whiteSpace=wrap;overflow=hidden;rotatable=0;points=[[0,0.5],[1,0.5]];portConstraint=eastwest;" parent="3Od7MkRay4kH6YmzunXQ-22" vertex="1">
          <mxGeometry y="140" width="190" height="26" as="geometry" />
        </mxCell>
        <mxCell id="3Od7MkRay4kH6YmzunXQ-29" value="+ getSkills(): string" style="text;html=1;strokeColor=none;fillColor=none;align=left;verticalAlign=top;spacingLeft=4;spacingRight=4;whiteSpace=wrap;overflow=hidden;rotatable=0;points=[[0,0.5],[1,0.5]];portConstraint=eastwest;" parent="3Od7MkRay4kH6YmzunXQ-22" vertex="1">
          <mxGeometry y="166" width="190" height="26" as="geometry" />
        </mxCell>
        <mxCell id="3Od7MkRay4kH6YmzunXQ-30" value="+ updatedSkills(): string" style="text;html=1;strokeColor=none;fillColor=none;align=left;verticalAlign=top;spacingLeft=4;spacingRight=4;whiteSpace=wrap;overflow=hidden;rotatable=0;points=[[0,0.5],[1,0.5]];portConstraint=eastwest;" parent="3Od7MkRay4kH6YmzunXQ-22" vertex="1">
          <mxGeometry y="192" width="190" height="26" as="geometry" />
        </mxCell>
        <mxCell id="3Od7MkRay4kH6YmzunXQ-31" value="+ setSkills(updatedSkills)" style="text;html=1;strokeColor=none;fillColor=none;align=left;verticalAlign=top;spacingLeft=4;spacingRight=4;whiteSpace=wrap;overflow=hidden;rotatable=0;points=[[0,0.5],[1,0.5]];portConstraint=eastwest;" parent="3Od7MkRay4kH6YmzunXQ-22" vertex="1">
          <mxGeometry y="218" width="190" height="26" as="geometry" />
        </mxCell>
        <mxCell id="3Od7MkRay4kH6YmzunXQ-32" value="Donkey" style="swimlane;html=1;fontStyle=1;align=center;verticalAlign=top;childLayout=stackLayout;horizontal=1;startSize=26;horizontalStack=0;resizeParent=1;resizeLast=0;collapsible=1;marginBottom=0;swimlaneFillColor=#ffffff;rounded=0;shadow=0;comic=0;labelBackgroundColor=none;strokeWidth=1;fillColor=none;fontFamily=Verdana;fontSize=12" parent="1" vertex="1">
          <mxGeometry x="820" y="590" width="190" height="260" as="geometry" />
        </mxCell>
        <mxCell id="3Od7MkRay4kH6YmzunXQ-33" value="- name: String" style="text;html=1;strokeColor=none;fillColor=none;align=left;verticalAlign=top;spacingLeft=4;spacingRight=4;whiteSpace=wrap;overflow=hidden;rotatable=0;points=[[0,0.5],[1,0.5]];portConstraint=eastwest;" parent="3Od7MkRay4kH6YmzunXQ-32" vertex="1">
          <mxGeometry y="26" width="190" height="26" as="geometry" />
        </mxCell>
        <mxCell id="3Od7MkRay4kH6YmzunXQ-34" value="- skills: String" style="text;html=1;strokeColor=none;fillColor=none;align=left;verticalAlign=top;spacingLeft=4;spacingRight=4;whiteSpace=wrap;overflow=hidden;rotatable=0;points=[[0,0.5],[1,0.5]];portConstraint=eastwest;" parent="3Od7MkRay4kH6YmzunXQ-32" vertex="1">
          <mxGeometry y="52" width="190" height="26" as="geometry" />
        </mxCell>
        <mxCell id="3Od7MkRay4kH6YmzunXQ-35" value="- displayCommands()" style="text;html=1;strokeColor=none;fillColor=none;align=left;verticalAlign=top;spacingLeft=4;spacingRight=4;whiteSpace=wrap;overflow=hidden;rotatable=0;points=[[0,0.5],[1,0.5]];portConstraint=eastwest;" parent="3Od7MkRay4kH6YmzunXQ-32" vertex="1">
          <mxGeometry y="78" width="190" height="26" as="geometry" />
        </mxCell>
        <mxCell id="3Od7MkRay4kH6YmzunXQ-36" value="-teachNewCommand(command)" style="text;html=1;strokeColor=none;fillColor=none;align=left;verticalAlign=top;spacingLeft=4;spacingRight=4;whiteSpace=wrap;overflow=hidden;rotatable=0;points=[[0,0.5],[1,0.5]];portConstraint=eastwest;" parent="3Od7MkRay4kH6YmzunXQ-32" vertex="1">
          <mxGeometry y="104" width="190" height="28" as="geometry" />
        </mxCell>
        <mxCell id="3Od7MkRay4kH6YmzunXQ-37" value="" style="line;html=1;strokeWidth=1;fillColor=none;align=left;verticalAlign=middle;spacingTop=-1;spacingLeft=3;spacingRight=3;rotatable=0;labelPosition=right;points=[];portConstraint=eastwest;" parent="3Od7MkRay4kH6YmzunXQ-32" vertex="1">
          <mxGeometry y="132" width="190" height="8" as="geometry" />
        </mxCell>
        <mxCell id="3Od7MkRay4kH6YmzunXQ-38" value="+ getName(): String;" style="text;html=1;strokeColor=none;fillColor=none;align=left;verticalAlign=top;spacingLeft=4;spacingRight=4;whiteSpace=wrap;overflow=hidden;rotatable=0;points=[[0,0.5],[1,0.5]];portConstraint=eastwest;" parent="3Od7MkRay4kH6YmzunXQ-32" vertex="1">
          <mxGeometry y="140" width="190" height="26" as="geometry" />
        </mxCell>
        <mxCell id="3Od7MkRay4kH6YmzunXQ-39" value="+ getSkills(): string" style="text;html=1;strokeColor=none;fillColor=none;align=left;verticalAlign=top;spacingLeft=4;spacingRight=4;whiteSpace=wrap;overflow=hidden;rotatable=0;points=[[0,0.5],[1,0.5]];portConstraint=eastwest;" parent="3Od7MkRay4kH6YmzunXQ-32" vertex="1">
          <mxGeometry y="166" width="190" height="26" as="geometry" />
        </mxCell>
        <mxCell id="3Od7MkRay4kH6YmzunXQ-40" value="+ updatedSkills(): string" style="text;html=1;strokeColor=none;fillColor=none;align=left;verticalAlign=top;spacingLeft=4;spacingRight=4;whiteSpace=wrap;overflow=hidden;rotatable=0;points=[[0,0.5],[1,0.5]];portConstraint=eastwest;" parent="3Od7MkRay4kH6YmzunXQ-32" vertex="1">
          <mxGeometry y="192" width="190" height="26" as="geometry" />
        </mxCell>
        <mxCell id="3Od7MkRay4kH6YmzunXQ-41" value="+ setSkills(updatedSkills)" style="text;html=1;strokeColor=none;fillColor=none;align=left;verticalAlign=top;spacingLeft=4;spacingRight=4;whiteSpace=wrap;overflow=hidden;rotatable=0;points=[[0,0.5],[1,0.5]];portConstraint=eastwest;" parent="3Od7MkRay4kH6YmzunXQ-32" vertex="1">
          <mxGeometry y="218" width="190" height="26" as="geometry" />
        </mxCell>
        <mxCell id="YG4cKTQRzzhEr9z_EyLE-2" style="edgeStyle=orthogonalEdgeStyle;rounded=0;orthogonalLoop=1;jettySize=auto;html=1;exitX=0;exitY=0.5;exitDx=0;exitDy=0;entryX=1;entryY=0.5;entryDx=0;entryDy=0;" edge="1" parent="1" source="FlubJuxZXB5tlYy22sZI-118" target="FlubJuxZXB5tlYy22sZI-32">
          <mxGeometry relative="1" as="geometry" />
        </mxCell>
        <mxCell id="YG4cKTQRzzhEr9z_EyLE-3" style="edgeStyle=orthogonalEdgeStyle;rounded=0;orthogonalLoop=1;jettySize=auto;html=1;exitX=0;exitY=0.5;exitDx=0;exitDy=0;entryX=1.01;entryY=0.064;entryDx=0;entryDy=0;entryPerimeter=0;" edge="1" parent="1" source="FlubJuxZXB5tlYy22sZI-126" target="FlubJuxZXB5tlYy22sZI-20">
          <mxGeometry relative="1" as="geometry" />
        </mxCell>
      </root>
    </mxGraphModel>
  </diagram>
</mxfile>
